<mxfile host="65bd71144e">
    <diagram id="wrqPBvAYh_cv5ay0t9mV" name="第 1 页">
        <mxGraphModel dx="819" dy="567" grid="1" gridSize="10" guides="1" tooltips="1" connect="1" arrows="1" fold="1" page="1" pageScale="1" pageWidth="827" pageHeight="1169" math="0" shadow="0">
            <root>
                <mxCell id="0"/>
                <mxCell id="1" parent="0"/>
                <mxCell id="19" value="pivot" style="rounded=0;whiteSpace=wrap;html=1;fontColor=default;labelBackgroundColor=default;labelBorderColor=none;fontSize=16;fontStyle=1" parent="1" vertex="1">
                    <mxGeometry x="160" y="240" width="40" height="80" as="geometry"/>
                </mxCell>
                <mxCell id="20" value="&amp;lt; pivot" style="rounded=0;whiteSpace=wrap;html=1;fontColor=default;labelBackgroundColor=default;labelBorderColor=none;fontSize=16;fontStyle=1" parent="1" vertex="1">
                    <mxGeometry x="200" y="240" width="160" height="80" as="geometry"/>
                </mxCell>
                <mxCell id="21" value="= pivot" style="rounded=0;whiteSpace=wrap;html=1;fontColor=default;labelBackgroundColor=default;labelBorderColor=none;fontSize=16;fontStyle=1" parent="1" vertex="1">
                    <mxGeometry x="360" y="240" width="160" height="80" as="geometry"/>
                </mxCell>
                <mxCell id="22" value="&amp;gt; pivot" style="rounded=0;whiteSpace=wrap;html=1;fontColor=default;labelBackgroundColor=default;labelBorderColor=none;fontSize=16;fontStyle=1" parent="1" vertex="1">
                    <mxGeometry x="520" y="240" width="160" height="80" as="geometry"/>
                </mxCell>
                <mxCell id="23" value="" style="endArrow=classic;html=1;entryX=0.5;entryY=0;entryDx=0;entryDy=0;fontColor=default;labelBackgroundColor=default;labelBorderColor=none;fillColor=#f5f5f5;strokeColor=#666666;fontSize=16;fontStyle=1" parent="1" target="19" edge="1">
                    <mxGeometry width="50" height="50" relative="1" as="geometry">
                        <mxPoint x="180" y="160" as="sourcePoint"/>
                        <mxPoint x="230" y="110" as="targetPoint"/>
                    </mxGeometry>
                </mxCell>
                <mxCell id="24" value="left" style="edgeLabel;html=1;align=center;verticalAlign=middle;resizable=0;points=[];fontColor=default;labelBackgroundColor=default;labelBorderColor=none;fontSize=16;fontStyle=1" parent="23" vertex="1" connectable="0">
                    <mxGeometry x="-0.325" y="-3" relative="1" as="geometry">
                        <mxPoint as="offset"/>
                    </mxGeometry>
                </mxCell>
                <mxCell id="27" value="right" style="endArrow=classic;html=1;entryX=0.902;entryY=0;entryDx=0;entryDy=0;fontColor=default;labelBackgroundColor=default;labelBorderColor=none;fillColor=#f5f5f5;strokeColor=#666666;fontSize=16;fontStyle=1;entryPerimeter=0;" parent="1" target="22" edge="1">
                    <mxGeometry width="50" height="50" relative="1" as="geometry">
                        <mxPoint x="664" y="160" as="sourcePoint"/>
                        <mxPoint x="640" y="150" as="targetPoint"/>
                    </mxGeometry>
                </mxCell>
                <mxCell id="28" value="" style="endArrow=classic;html=1;entryX=0.5;entryY=0;entryDx=0;entryDy=0;fontColor=default;labelBackgroundColor=default;labelBorderColor=none;fillColor=#f5f5f5;strokeColor=#666666;fontSize=16;fontStyle=1" parent="1" edge="1">
                    <mxGeometry width="50" height="50" relative="1" as="geometry">
                        <mxPoint x="370" y="160" as="sourcePoint"/>
                        <mxPoint x="370" y="240" as="targetPoint"/>
                    </mxGeometry>
                </mxCell>
                <mxCell id="29" value="lt" style="edgeLabel;html=1;align=center;verticalAlign=middle;resizable=0;points=[];fontColor=default;labelBackgroundColor=default;labelBorderColor=none;fontSize=16;fontStyle=1" parent="28" vertex="1" connectable="0">
                    <mxGeometry x="-0.325" y="-3" relative="1" as="geometry">
                        <mxPoint as="offset"/>
                    </mxGeometry>
                </mxCell>
                <mxCell id="30" value="" style="endArrow=classic;html=1;entryX=0.5;entryY=0;entryDx=0;entryDy=0;fontColor=default;labelBackgroundColor=default;labelBorderColor=none;fillColor=#f5f5f5;strokeColor=#666666;fontSize=16;fontStyle=1" parent="1" edge="1">
                    <mxGeometry width="50" height="50" relative="1" as="geometry">
                        <mxPoint x="510" y="160" as="sourcePoint"/>
                        <mxPoint x="510" y="240" as="targetPoint"/>
                    </mxGeometry>
                </mxCell>
                <mxCell id="31" value="gt" style="edgeLabel;html=1;align=center;verticalAlign=middle;resizable=0;points=[];fontColor=default;labelBackgroundColor=default;labelBorderColor=none;fontSize=16;fontStyle=1" parent="30" vertex="1" connectable="0">
                    <mxGeometry x="-0.325" y="-3" relative="1" as="geometry">
                        <mxPoint as="offset"/>
                    </mxGeometry>
                </mxCell>
            </root>
        </mxGraphModel>
    </diagram>
</mxfile>